<?xml version="1.0" encoding="utf-8"?>
<!-- Generator: Adobe Illustrator 27.5.0, SVG Export Plug-In . SVG Version: 6.00 Build 0)  -->
<svg version="1.1" id="Слой_2" xmlns="http://www.w3.org/2000/svg" xmlns:xlink="http://www.w3.org/1999/xlink" x="0px" y="0px"
	 viewBox="0 0 512 512" style="enable-background:new 0 0 512 512;" xml:space="preserve">
<style type="text/css">
	.st0{fill:none;stroke:#808080;stroke-width:19;stroke-miterlimit:10;}
	.st1{fill:none;stroke:#808080;stroke-width:12;stroke-miterlimit:10;}
</style>
<path class="st0" d="M20.7,413.9c-3.5-13.5,1.8-17.2,16.8-73.7c6.5-24.5,14.7-55.5,20.4-91.8c7.6-48.2,2.1-51.5,10.4-82.7
	c16-77.3,67.2-115.3,127.1-127.1c36.3-9.4,98.1-7.1,139.1,37.2c15.3,16.9,19,31.8,27.3,52.3c0,0,20.4,50.8,57.1,97.2
	c42.5,53.7,88.2,71.5,81.6,91.1c-3.1,9.1-15.8,13.8-18.5,14.8c-14.3,5.3-29,0.3-39.3-3.2c-17.6-6-24.8-13.5-30.2-10
	c-5.2,3.4-0.7,11.4-6.5,20.2c-5.4,8.2-17.8,13.5-27.9,11.6c-12.3-2.3-14.2-13.9-35.3-38.3c-8.3-9.6-6.4-5.9-23.9-24.3
	c-27.8-29.1-29.2-34.9-40.8-40.8c-3-1.6-23.1-11.9-43.3-5.4c-26.8,8.6-37.6,41.7-49.9,79.5c-1.8,5.5-5,15.7-12.2,50.3
	c-17,80.6-13.6,90.7-24.5,99.3C117.9,493.8,33,460.9,20.7,413.9z"/>
<path class="st1" d="M241.5,112.2c-9.9,0.8-18.4-7-19.2-16.4c-0.9-10.4,7.9-19.9,18.3-19.6c9,0.2,16.8,7.8,17.3,17.1
	C258.3,102.7,251.1,111.4,241.5,112.2z"/>
<path class="st0" d="M346.2,181.8c-1.5,1.2,1.7,9.6,8.2,14.3c5.2,3.7,12.1,4.9,12.9,3.4c0.8-1.4-3.7-5.1-8.8-9.5
	C352.8,185.2,347.5,180.7,346.2,181.8z"/>
<path class="st0" d="M416.5,317.1c-18-15.7-51.5-41.4-66.7-53.1c-39.7-31.6-50.8-49.4-58.2-45.6c-8.8,4.5-2.2,33.9-2.9,34
	c-0.5,0,1.5-13.7-3.6-29.9c-1.6-5-3.6-9.3-1.4-12.8c2.2-3.6,6.8-2.9,11.7-4.9c8.9-3.5,12.6-13.4,16.1-22.6
	c6.8-17.9,4.3-35.6,3.5-40.1c-1.5-8.9-3.8-14.5-2-15.5c3-1.7,11.6,12.7,30.6,21.5c14,7.5,20.5-3.8,22.7-12.4"/>
</svg>
